<?xml version="1.0" encoding="iso-8859-1"?>
<!-- Uploaded to: SVG Repo, www.svgrepo.com, Generator: SVG Repo Mixer Tools -->
<svg fill="#000000" height="800px" width="800px" version="1.1" id="Capa_1" xmlns="http://www.w3.org/2000/svg" xmlns:xlink="http://www.w3.org/1999/xlink" 
	 viewBox="0 0 470 470" xml:space="preserve">
<g>
	<path d="M437.691,265.683C439.213,255.62,440,245.369,440,235c0-4.142-3.358-7.5-7.5-7.5h-59.074v-15.883
		c14.315-3.396,25-16.278,25-31.617v-57.204c0-17.92-14.58-32.5-32.5-32.5s-32.5,14.58-32.5,32.5V180
		c0,15.339,10.685,28.221,25,31.617V227.5h-65v-15.883c14.315-3.396,25-16.278,25-31.617V70.333c0-17.92-14.58-32.5-32.5-32.5
		s-32.5,14.58-32.5,32.5V180c0,15.339,10.685,28.221,25,31.617V227.5H111.574v-15.883c14.315-3.396,25-16.278,25-31.617v-57.204
		c0-17.92-14.58-32.5-32.5-32.5s-32.5,14.58-32.5,32.5V180c0,15.339,10.685,28.221,25,31.617V227.5H37.5c-4.142,0-7.5,3.358-7.5,7.5
		c0,46.643,15.669,89.689,42.005,124.175c0.164,0.243,0.344,0.474,0.534,0.696C110.053,408.564,168.92,440,235,440
		c23.54,0,46.658-3.99,68.715-11.86c3.901-1.392,5.935-5.683,4.543-9.584c-1.392-3.902-5.686-5.934-9.584-4.543
		C278.24,421.303,256.817,425,235,425c-55.744,0-105.954-24.135-140.742-62.5h281.505c-14.3,15.774-31.352,29.301-50.73,39.775
		c-3.644,1.969-5.001,6.52-3.032,10.164c1.97,3.644,6.521,4.999,10.164,3.032c57.094-30.859,95.623-86.181,105.392-148.898
		C437.62,266.282,437.664,265.985,437.691,265.683z M348.426,180v-57.204c0-9.649,7.851-17.5,17.5-17.5s17.5,7.851,17.5,17.5V180
		c0,9.649-7.851,17.5-17.5,17.5S348.426,189.649,348.426,180z M268.426,180V70.333c0-9.649,7.851-17.5,17.5-17.5
		s17.5,7.851,17.5,17.5V180c0,9.649-7.851,17.5-17.5,17.5S268.426,189.649,268.426,180z M86.574,180v-57.204
		c0-9.649,7.851-17.5,17.5-17.5s17.5,7.851,17.5,17.5V180c0,9.649-7.851,17.5-17.5,17.5S86.574,189.649,86.574,180z M81.987,347.5
		c-16.145-21.901-27.702-47.376-33.255-75h81.043c4.142,0,7.5-3.358,7.5-7.5s-3.358-7.5-7.5-7.5H46.334
		c-0.586-4.946-0.991-9.947-1.188-15h379.707c-0.198,5.04-0.62,10.04-1.211,15H159.774c-4.142,0-7.5,3.358-7.5,7.5
		s3.358,7.5,7.5,7.5h261.481c-5.495,27.284-16.912,52.842-33.223,75H81.987z"/>
	<path d="M289.513,317.5h-10c-4.142,0-7.5,3.358-7.5,7.5s3.358,7.5,7.5,7.5h10c4.142,0,7.5-3.358,7.5-7.5
		S293.655,317.5,289.513,317.5z"/>
	<path d="M277.013,295c0-4.142-3.358-7.5-7.5-7.5h-10c-4.142,0-7.5,3.358-7.5,7.5s3.358,7.5,7.5,7.5h10
		C273.655,302.5,277.013,299.142,277.013,295z"/>
	<path d="M104,317.5H94c-4.142,0-7.5,3.358-7.5,7.5s3.358,7.5,7.5,7.5h10c4.142,0,7.5-3.358,7.5-7.5S108.142,317.5,104,317.5z"/>
	<path d="M144,317.5h-10c-4.142,0-7.5,3.358-7.5,7.5s3.358,7.5,7.5,7.5h10c4.142,0,7.5-3.358,7.5-7.5S148.142,317.5,144,317.5z"/>
	<path d="M390.49,287.5h-10c-4.142,0-7.5,3.358-7.5,7.5s3.358,7.5,7.5,7.5h10c4.142,0,7.5-3.358,7.5-7.5S394.632,287.5,390.49,287.5
		z"/>
	<path d="M401.17,68.83C356.785,24.444,297.771,0,235,0S113.215,24.444,68.83,68.83C24.444,113.215,0,172.229,0,235
		s24.444,121.785,68.83,166.17C113.215,445.556,172.229,470,235,470s121.785-24.444,166.17-68.83
		C445.556,356.785,470,297.771,470,235S445.556,113.215,401.17,68.83z M235,455c-121.309,0-220-98.691-220-220S113.691,15,235,15
		s220,98.691,220,220S356.309,455,235,455z"/>
	<path d="M195,121.85c23.945,0,43.426-19.481,43.426-43.427c0-23.945-19.481-43.426-43.426-43.426s-43.426,19.481-43.426,43.426
		C151.574,102.369,171.055,121.85,195,121.85z M195,49.997c15.674,0,28.426,12.752,28.426,28.426
		c0,15.675-12.752,28.427-28.426,28.427s-28.426-12.752-28.426-28.427C166.574,62.749,179.326,49.997,195,49.997z"/>
</g>
</svg>