<?xml version="1.0" standalone="no"?>
<!DOCTYPE svg PUBLIC "-//W3C//DTD SVG 20010904//EN"
 "http://www.w3.org/TR/2001/REC-SVG-20010904/DTD/svg10.dtd">
<svg version="1.0" xmlns="http://www.w3.org/2000/svg"
 width="512.000000pt" height="512.000000pt" viewBox="0 0 512.000000 512.000000"
 preserveAspectRatio="xMidYMid meet">

<g transform="translate(0.000000,512.000000) scale(0.100000,-0.100000)"
fill="#000000" stroke="none">
<path d="M529 4583 c-169 -168 -313 -319 -320 -334 -24 -59 15 -135 71 -139
67 -6 71 -3 287 212 l213 212 0 -592 c0 -638 0 -635 51 -663 28 -14 81 -14
109 1 49 26 50 37 50 667 l0 588 213 -213 c206 -206 215 -213 254 -214 50 0
79 14 98 52 19 36 19 63 1 98 -8 15 -151 163 -318 330 l-304 302 -49 0 -49 0
-307 -307z"/>
<path d="M2198 4572 l-318 -317 0 -46 c0 -72 54 -115 128 -101 18 3 93 70 240
215 l212 211 0 -606 0 -606 31 -31 c42 -43 98 -43 140 -2 l29 29 0 609 0 608
208 -208 c210 -210 238 -231 295 -220 32 6 73 46 79 76 11 56 -9 80 -325 395
l-313 312 -44 0 -45 0 -317 -318z"/>
<path d="M3874 4578 c-270 -271 -313 -318 -319 -350 -14 -75 56 -138 130 -117
19 6 101 80 237 216 l208 208 0 -588 c0 -631 0 -635 51 -671 46 -32 124 -11
147 39 9 19 12 181 12 623 l0 597 208 -208 c136 -136 217 -210 237 -215 71
-20 135 28 135 102 0 40 -5 45 -318 358 l-318 318 -49 0 -49 0 -312 -312z"/>
<path d="M565 2589 c-140 -15 -282 -54 -440 -122 -59 -25 -86 -43 -103 -68
-28 -41 -25 -89 9 -125 40 -42 74 -40 203 11 201 79 248 89 436 89 191 -1 241
-12 480 -111 200 -83 403 -150 505 -168 131 -23 327 -21 468 5 166 30 296 71
490 154 237 102 364 131 541 124 157 -7 235 -28 494 -132 114 -46 244 -95 288
-109 305 -96 641 -74 1003 65 126 49 147 61 167 101 33 63 -15 147 -84 147
-20 0 -81 -18 -136 -39 -268 -105 -496 -141 -699 -110 -113 17 -232 53 -409
125 -292 118 -382 145 -547 164 -188 22 -397 -16 -641 -116 -306 -127 -462
-170 -646 -180 -201 -12 -318 14 -657 148 -126 49 -270 100 -321 113 -85 22
-260 47 -303 44 -10 -1 -54 -5 -98 -10z"/>
<path d="M455 1650 c-108 -21 -249 -67 -350 -114 -55 -26 -78 -42 -90 -66 -30
-58 1 -131 62 -146 31 -8 61 0 192 51 168 65 230 78 391 79 179 1 251 -15 483
-110 389 -158 501 -187 727 -187 245 0 442 49 800 197 204 84 276 100 450 100
180 1 233 -12 525 -129 363 -144 465 -169 685 -168 171 1 328 28 510 89 187
62 241 90 263 136 21 42 15 76 -18 112 -36 39 -71 43 -140 16 -286 -109 -400
-135 -605 -135 -218 0 -267 12 -615 150 -288 115 -371 136 -560 142 -217 8
-363 -24 -621 -133 -256 -109 -417 -152 -600 -161 -214 -10 -355 21 -659 147
-126 52 -226 89 -290 107 -168 46 -379 56 -540 23z"/>
<path d="M570 740 c-95 -9 -195 -32 -307 -70 -145 -48 -221 -87 -244 -123 -37
-60 -3 -140 66 -153 24 -4 61 6 149 41 201 79 248 89 436 89 194 -1 237 -11
505 -121 337 -138 482 -174 703 -174 234 0 444 50 735 175 237 102 362 131
541 124 156 -6 230 -26 496 -133 117 -47 247 -96 290 -109 241 -76 515 -76
799 0 111 30 295 99 333 126 54 37 57 111 6 166 -31 32 -76 28 -192 -17 -278
-109 -504 -142 -716 -106 -128 21 -205 46 -440 140 -240 96 -348 128 -499 145
-189 22 -396 -15 -640 -116 -305 -126 -461 -169 -652 -180 -192 -12 -333 20
-648 146 -108 43 -226 87 -264 99 -147 45 -325 65 -457 51z"/>
</g>
</svg>
