<svg xmlns="http://www.w3.org/2000/svg" version="1.0" width="1024.000000pt" height="1024.000000pt" viewBox="0 0 1024.000000 1024.000000" preserveAspectRatio="xMidYMid meet">

<g transform="translate(0.000000,1024.000000) scale(0.100000,-0.100000)" fill="#6b4939" stroke="none">
<path d="M4500 8104 c-302 -13 -807 -58 -1060 -95 -963 -141 -1659 -412 -2051 -799 -212 -210 -298 -392 -299 -631 0 -176 46 -318 159 -492 28 -43 155 -259 282 -480 492 -855 672 -1129 967 -1476 127 -148 366 -382 502 -490 369 -295 837 -517 1306 -620 284 -62 402 -74 709 -75 358 -1 517 16 814 90 356 88 670 227 991 438 182 120 314 229 500 416 399 398 679 796 1133 1610 234 422 425 781 452 855 65 172 56 374 -25 551 -132 291 -488 562 -1005 767 -561 222 -1221 351 -2105 413 -212 14 -1060 26 -1270 18z m985 -294 c995 -52 1794 -204 2390 -455 378 -159 667 -384 754 -587 31 -74 44 -167 32 -234 -40 -220 -281 -487 -625 -692 -130 -77 -237 -134 -242 -129 -2 2 16 34 40 70 83 123 119 276 98 410 -26 165 -77 261 -207 392 -132 133 -306 240 -545 335 -848 340 -2423 431 -3612 210 -496 -92 -927 -244 -1193 -422 -99 -66 -249 -214 -293 -290 -47 -80 -83 -189 -89 -272 -9 -115 34 -278 97 -366 11 -15 20 -30 20 -33 0 -9 -179 92 -258 145 -311 209 -474 442 -475 678 0 242 192 481 553 685 369 209 1013 394 1670 479 285 37 517 57 940 79 144 8 776 6 945 -3z m-100 -860 c605 -30 1122 -116 1555 -259 354 -117 589 -271 672 -439 29 -58 33 -76 32 -142 -1 -92 -21 -148 -91 -250 -93 -136 -288 -306 -435 -381 -32 -16 -60 -29 -63 -29 -3 0 -5 24 -5 53 0 207 -197 412 -538 562 -492 216 -1344 313 -2112 240 -509 -49 -953 -178 -1211 -352 -93 -63 -208 -183 -242 -254 -32 -65 -48 -168 -36 -230 4 -24 8 -49 9 -56 0 -14 -176 79 -272 144 -225 151 -380 390 -365 560 19 198 236 380 636 533 425 162 969 263 1616 299 207 12 622 12 850 1z m8 -935 c834 -81 1424 -328 1381 -576 -14 -81 -84 -231 -191 -411 -70 -117 -214 -328 -223 -328 -3 0 -25 30 -49 66 -191 290 -566 491 -1046 561 -168 24 -481 24 -629 -1 -352 -58 -612 -202 -738 -411 -18 -30 -35 -54 -38 -54 -3 0 -21 24 -42 53 -106 152 -205 242 -398 361 -174 107 -230 164 -230 235 0 46 22 81 89 142 179 162 625 306 1111 358 300 32 705 34 1003 5z m2815 -407 c-8 -13 -59 -99 -113 -193 -403 -696 -708 -1097 -1095 -1439 -483 -427 -1055 -675 -1695 -737 -150 -14 -532 -6 -670 15 -337 51 -627 139 -920 280 -333 161 -561 322 -825 586 -297 296 -594 710 -917 1280 -33 58 -68 119 -78 134 -11 16 -15 27 -10 25 6 -3 87 -43 180 -90 254 -126 494 -216 812 -304 474 -131 530 -167 775 -490 444 -587 898 -874 1461 -926 290 -27 605 40 851 181 319 183 648 564 951 1101 l49 87 126 33 c371 96 870 304 1072 448 52 36 65 39 46 9z m-3023 -563 c353 -42 652 -176 835 -373 73 -77 134 -185 128 -224 -4 -30 -167 -172 -266 -231 -397 -240 -859 -248 -1290 -21 -185 97 -328 206 -453 345 l-69 75 17 45 c27 72 81 146 141 194 116 94 314 169 504 193 114 15 321 13 453 -3z" fill="#6b4939"/>
</g>
</svg>